<?xml version="1.0" encoding="UTF-8"?>
<svg xmlns="http://www.w3.org/2000/svg" style="display: none;">
  <symbol id="restarters-reply-arrow">
    <path d="M2.503 4.583a4.583 4.583 0 1 1 9.167 0v11.25a.833.833 0 0 1-1.667 0V4.583a2.917 2.917 0 1 0-5.833 0V10a.834.834 0 1 1-1.667 0z"></path>
    <path d="M6.428 7.742a.833.833 0 0 0-1.183 0L3.337 9.658 1.428 7.742A.837.837 0 0 0 .245 8.925l2.208 2.2a1.242 1.242 0 0 0 1.767 0l2.208-2.2a.833.833 0 0 0 0-1.183z"></path>
  </symbol>
  <symbol id="restarters-paperclip">
    <path d="M8.209 22.918a7.479 7.479 0 0 0 6.375-7.573V6.418a1.042 1.042 0 1 0-2.083 0v9.208a5.208 5.208 0 0 1-6.25 5.1 5.344 5.344 0 0 1-4.167-5.3V5.209a3.125 3.125 0 0 1 3.708-3.073 3.229 3.229 0 0 1 2.542 3.229v8.177a1.042 1.042 0 1 1-2.083 0V7.293a1.042 1.042 0 0 0-2.083 0v6.25a3.125 3.125 0 0 0 3.708 3.125 3.219 3.219 0 0 0 2.542-3.281V5.209a5.208 5.208 0 0 0-6.25-5.1A5.344 5.344 0 0 0 .001 5.407v10.219a7.292 7.292 0 0 0 8.208 7.292z"
      fill-rule="evenodd"></path>
  </symbol>
  <symbol id="restarters-talk-doodle">
    <path d="M5.053 36.228a114.317 114.317 0 0 1-2.615-18.5 90.769 90.769 0 0 1-.191-9.313 1 1 0 0 1 .255-.829 1.374 1.374 0 0 1 .7-.128c.7-.128 1.531-.191 2.3-.319 1.595-.191 3.126-.383 4.721-.51 12.56-1.403 25.13-2.743 37.76-3.572 7.208-.51 14.353-.765 21.5-.829l-.958-.957c.191 5.358.255 10.717.128 16.012-.064 2.679-.191 5.358-.319 8.038-.064 1.276-.128 2.615-.255 3.891a3.562 3.562 0 0 1-.191 1.4c-.255.447-1.084.383-1.467.447a118.877 118.877 0 0 1-15.82.638c-2.233-.064-4.976-.574-7.017.638-1.914 1.084-2.871 3.317-3.891 5.167a114.7 114.7 0 0 0-6.889 15.693h1.85c-.638-2.807-1.34-5.614-1.978-8.42-.319-1.4-.638-2.871-1.021-4.274a9.933 9.933 0 0 0-1.084-3c-1.4-2.169-4.019-1.914-6.315-1.978-5.167 0-10.334 0-15.437-.064H4.032a.958.958 0 0 0 0 1.914h18.946a22.132 22.132 0 0 1 4.593.128c1.276.319 1.722 1.4 2.041 2.552.383 1.467.7 2.871 1.021 4.338.7 3.062 1.4 6.124 2.169 9.186a.973.973 0 0 0 1.85 0 115.669 115.669 0 0 1 6.124-14.162c.574-1.084 1.084-2.105 1.722-3.126a6.113 6.113 0 0 1 2.041-2.36 5.657 5.657 0 0 1 3.253-.447c1.34.064 2.679.128 4.083.128 2.679.064 5.358 0 7.974-.191a54.4 54.4 0 0 0 7.91-.7c2.552-.51 2.233-3.317 2.36-5.295.191-2.679.319-5.358.383-7.974.191-6.06.191-12.184-.064-18.244a.981.981 0 0 0-.955-.956C56.277.441 43.072 1.334 29.867 2.61c-6.634.64-13.205 1.34-19.839 2.105-1.595.191-3.253.383-4.848.574-1.212.128-3.062 0-4.083.893-1.084.894-.829 2.616-.829 3.892 0 1.595 0 3.19.064 4.784a124.568 124.568 0 0 0 2.871 21.817c.255 1.212 2.105.701 1.85-.447z"
      stroke="#000" stroke-width=".5"></path>
    <path d="M16.407 25.256a2.9 2.9 0 0 0 2.871-2.871 2.943 2.943 0 0 0-2.871-2.87 2.9 2.9 0 0 0-2.869 2.871 2.943 2.943 0 0 0 2.871 2.871zm14.48 0a2.9 2.9 0 0 0 2.871-2.871 2.943 2.943 0 0 0-2.871-2.87 2.9 2.9 0 0 0-2.869 2.871 2.943 2.943 0 0 0 2.871 2.871zm18.181-3.636a2.9 2.9 0 0 0 2.871-2.871 2.943 2.943 0 0 0-2.871-2.87 2.9 2.9 0 0 0-2.869 2.871 2.859 2.859 0 0 0 2.871 2.871z"></path>
  </symbol>
  <symbol id="restarters-pencil">
    <rect width="30" height="30" fill="none"/>
    <g transform="translate(2.326 2.375)">
      <path d="M24.885,3.125a3.773,3.773,0,0,0-5.375,0L4.26,18.25c-.125.125-.125.25-.25.375l-2,7.25a.829.829,0,0,0,.25.875,1.055,1.055,0,0,0,.875.25l7.25-2c.125,0,.25-.125.375-.25L25.885,9.625a3.773,3.773,0,0,0,0-5.375ZM6.135,18.875,18.51,6.5l4,4L10.135,22.875ZM5.385,20.5l3.25,3.25L4.26,25ZM24.635,8.375l-.875.875-4-4,.875-.875a2.042,2.042,0,0,1,3,0l1,1a2.042,2.042,0,0,1,0,3Zm0,0" transform="translate(-1.836 -1.875)"/>
      <path d="M2.91,27.15a1.777,1.777,0,0,1-.75-.25.972.972,0,0,1-.25-1l2-7.125a.948.948,0,0,1,.25-.5L19.285,3.025a4.236,4.236,0,0,1,5.75,0l1,1a4,4,0,0,1,0,5.75L10.91,24.9a.649.649,0,0,1-.5.25l-7.25,2ZM22.16,2.275a3.49,3.49,0,0,0-2.5,1L4.535,18.525c-.125.125-.125.125-.125.25l-2,7.125a.937.937,0,0,0,.125.625.55.55,0,0,0,.625.125l7.25-2a.436.436,0,0,0,.25-.125L25.66,9.4a3.7,3.7,0,0,0,0-5.125l-1-1A3.49,3.49,0,0,0,22.16,2.275Zm-18.375,23L5.16,20.15,8.91,23.9ZM5.535,20.9l-1,3.625,3.625-1Zm4.625,2.25L5.91,18.9l.125-.125,12.5-12.5,4.25,4.25-.125.125ZM6.535,18.9l3.625,3.75L22.285,10.525,18.535,6.9Zm17.25-9.25L19.535,5.4l1-1a2.34,2.34,0,0,1,3.25,0l1,1a2.34,2.34,0,0,1,0,3.25Zm-3.75-4.375,3.625,3.75.875-.75a1.962,1.962,0,0,0,0-2.75l-1-1a1.962,1.962,0,0,0-2.75,0Z" transform="translate(-1.861 -1.9)"/>
    </g>
  </symbol>
</svg>
