<?xml version="1.0" encoding="UTF-8" standalone="no"?>
<!DOCTYPE svg PUBLIC "-//W3C//DTD SVG 1.1//EN" "http://www.w3.org/Graphics/SVG/1.1/DTD/svg11.dtd">
<svg xmlns="http://www.w3.org/2000/svg" xmlns:xlink="http://www.w3.org/1999/xlink" xmlns:serif="http://www.serif.com/" width="980" height="148" version="1.1" xml:space="preserve" style="fill-rule:evenodd;clip-rule:evenodd;stroke-linejoin:round;stroke-miterlimit:1.41421;">
  <path d="M9.073,25.201c14.294,-16.78 21.998,-26.844 66.065,-22.006c44.072,4.831 147.677,-1.65 196.933,-2.703c49.252,-1.054 163.804,2.155 243.896,2.703c80.092,0.54 179.877,-3.833 247.922,-1.65c68.045,2.19 135.299,-3.188 166.473,1.65c31.175,4.831 47.713,-0.527 48.512,55.289c0.803,55.815 0.138,84.808 -21.567,84.808l-192.791,0c0,0 -181.353,-3.23 -291.574,1.067c-110.225,4.291 -159.737,-3.763 -241.264,0.534c-81.523,4.29 -133.37,2.745 -177.437,1.504c-44.068,-1.241 -46.809,-5.399 -48.03,-35.459c-1.222,-30.053 -12.839,-67.308 2.862,-85.737" style="fill:#ffbe5f;fill-rule:nonzero;"/>
</svg>
